<svg viewBox="0 0 77.731 48" width="77.731" height="48" xmlns="http://www.w3.org/2000/svg">
  <path d="M4787.514 6119.849c-31.991 31.649-72.373 51.815-116.798 58.319-5.667.831-10.943-3.124-11.762-8.772-.828-5.66 3.104-10.943 8.767-11.776 36.333-5.316 69.864-20.894 97.297-45.148-33.747-29.789-77.079-46.582-122.609-47.406-43.283-.811-85.081 12.922-119.003 38.731 103.341 13.288 184.027 101.7 184.602 207.995a10.448 10.448 0 0 1-3.029 7.39c-2.086 2.098-4.888 3.245-7.581 3.049-44.01-.278-86.041-14.041-121.557-39.81-4.63-3.366-5.66-9.872-2.299-14.502a10.331 10.331 0 0 1 6.769-4.151 10.322 10.322 0 0 1 7.733 1.85c29.021 21.062 63.093 33.28 98.838 35.49-2.934-47.031-23.27-90.989-57.611-124.27-29.726-28.812-67.218-46.886-107.458-52.273 63.731 82.348 58.651 201.524-15.694 276.68-1.893 1.917-4.584 3.015-7.382 3.015-2.796 0-5.486-1.098-7.378-3.013-31.65-31.994-51.816-72.377-58.316-116.789-.828-5.66 3.104-10.943 8.795-11.778 5.662-.798 10.927 3.14 11.749 8.772 5.318 36.326 20.894 69.859 45.143 97.296 30.942-35.105 47.443-80.332 46.568-127.946-.759-41.209-14.526-80.366-39.134-112.561-13.173 102.484-100.507 182.861-205.465 183.942-2.832.019-5.472-1.037-7.459-3.003a10.454 10.454 0 0 1-3.076-7.378v-19.268c0-.34.016-.685.053-1.052 3.594-35.312 16.264-69.364 36.64-98.477 3.271-4.68 9.75-5.827 14.459-2.554a10.309 10.309 0 0 1 4.27 6.7 10.312 10.312 0 0 1-1.718 7.759c-18.245 26.067-29.634 56.546-32.942 88.158v7.951c46.491-3.095 89.961-23.468 122.86-57.7 28.424-29.573 46.268-66.776 51.609-106.64-81.757 62.972-200.243 56.769-274.675-16.139a10.32 10.32 0 0 1-3.109-7.355 10.427 10.427 0 0 1 3.042-7.398l13.583-13.58c.253-.26.517-.498.821-.749 37.127-30.26 84.038-46.925 132.1-46.924h.402c37.562.029 74.401 10.121 106.535 29.184a10.319 10.319 0 0 1 4.761 6.361 10.307 10.307 0 0 1-1.127 7.863 10.294 10.294 0 0 1-6.357 4.763c-2.692.692-5.49.285-7.874-1.129-28.91-17.153-62.069-26.24-95.903-26.279h-.531c-43.086.023-85.152 14.911-118.48 41.928l-5.626 5.622c35.097 30.745 80.144 47.191 127.534 46.442 49.08-.791 95.13-20.032 129.67-54.178l.035-.034.002-.002.003-.003.059-.059c39.635-39.178 92.383-60.753 148.551-60.753h.027c56.224.003 109.026 21.605 148.683 60.831a10.473 10.473 0 0 1 3.075 7.379c0 2.753-1.124 5.442-3.082 7.379" style="fill:#f7a8aa;fill-opacity:1;fill-rule:nonzero;stroke:none" transform="matrix(.13333 0 0 -.13333 -561.015 853.901)"/>
</svg>
